<?xml version="1.0" encoding="UTF-8"?>
<svg id="Layer_2" data-name="Layer 2" xmlns="http://www.w3.org/2000/svg" viewBox="0 0 639.1 620">
  <defs>
    <style>
      .cls-1 {
        fill: #ffce00;
      }

      .cls-2 {
        fill: #0042eb;
      }

      .cls-3 {
        fill: #1e221f;
      }

      .cls-4 {
        fill: #faf8ee;
      }
    </style>
  </defs>
  <g id="Layer_1-2" data-name="Layer 1">
    <g id="PO5eLS">
      <g>
        <path d="M31,503c1.09,3.1-4.81,2.19-4.99,1.99-.29-.31-.43-7.01-1.05-8.45l.03-266.03C17.1,196.25,6.76,162.51,0,128.01L577,0l5.11,21.89,16.84-2.87,29.05,113.97-225,46.5,215-17.49v21h18.5c.31,0,1.41-1.38,2.49-1-.18,11.16.24,22.37.05,33.54-1.2,67.95-4.3,136.07-6.08,203.92-.71,26.87-.17,53.74-1.95,80.55-9.82.23-19.72-.32-29.55-.05-100.9,2.77-201.67,9.18-302.72,12.28l-112.27,93.73-18.48,14.02v-34l-20.99,14.99-1-82-100.01,5.01v-20c-4.23.78-8.28-.59-12-1,.91-3.88-5.18-1.18-6.01-1.99-.25-.25-.26-6.77,0-7.01.21-.2,3.81.26,5.3-.19,1.97-.61,1.73-2.34,5.7-2.8,29.9-3.47,63.22-2.43,93.54-3.96,8.76-.44,17.69-1.61,26.46-2.05l2.48,89,110.22-93.79c108.43-3.4,216.88-9.12,325.3-12.2,1.48-19.11.47-38.34.95-57.55,1.47-58.57,3.47-117.36,5.08-175.92.54-19.54.8-39,.96-58.55-37.53,2.02-75.07,5.43-112.5,9.01-151.11,14.46-301.74,33.84-452.5,51-3.85-1.22-1.07,5.03-2.04,5.96-.77.74-4.94-1.64-5.03,3.55-.05,2.93,4.2,1.72,4.95,2.6,1.15,1.34-1.94,7.66,2.11,6.89.05,2.99-.03,6.01,0,9-3.18-.78-2.98,3.88,0,3,.08,10.32-.02,20.68,0,31-8.45-.8-7.87,6.16,0,6,0,1.67,0,3.33,0,5-.92.09-1.75-.54-2.02.63-.48,2.04-.78,9.87,2.02,8.37,0,2,0,4,0,6-3.02-.56-1.93,1.53-2,3.45s-.08,4.09,0,6.09-1.03,4.01,2,3.45c0,2,0,4,0,6-3.03-.56-1.92,1.53-2,3.45-.71,17.89.51,35.94.02,53.85-7.19,4.3-.28,5.82.05,8.17.99,6.99-3.12,5.65-3.15,8.02-.02,1.62,2.69,2.68,3.12,5.95,1.31,9.74,1.36,47.47,0,57.11-.31,2.17-1.47,3.17-2,5.01-.36,1.23.22,4.16-.04,4.44-.38.41-7.6-.43-8.01-.01-.49.5.37,11.89,0,14.01,1.3.12,2.72-.17,4,0ZM566.96,16.03l-121.95,27.46,83.71,73.31c1.55.55,3.08.23,4.65.1,12.86-1.02,40.17-6.62,53-10.04,1.01-.27,3.55-.48,3.65-1.44l-23.06-89.39ZM419,141l-1.98-3.51-84.72-70.29-5.54.06-102.75,23.76c27.91,24.64,57.17,47.89,85.73,71.84l109.26-21.85ZM210,184.99c-26.73-24.5-55.32-47.01-82.69-70.83l-67.3,14.85c-.5,1.94.79,1.93,1.67,2.81,2.79,2.8,6.34,5.96,9.31,8.69,21.33,19.67,43.68,38.29,64.72,58.29l4.66.09,69.63-13.9ZM25.99,223c.72-1.4-.63-2.67-.98-1.99-.72,1.4.63,2.67.98,1.99ZM26.5,226v1c.65-.33.65-.67,0-1ZM28,481v-252h-1v252h1Z"/>
        <path class="cls-3" d="M39,343c.04,49.32-.03,98.68,0,148-3.98.46-3.73,2.2-5.7,2.8-1.49.46-5.09,0-5.3.19-.25.24-.25,6.77,0,7.01.83.81,6.91-1.89,6.01,1.99-.97-.11-2.04.13-3,0-1.29-.17-2.7.13-4,0,.37-2.13-.5-13.51,0-14.01.41-.42,7.63.42,8.01.01.26-.28-.31-3.21.04-4.44.53-1.84,1.7-2.84,2-5.01,1.36-9.64,1.31-47.37,0-57.11-.44-3.27-3.14-4.33-3.12-5.95.03-2.38,4.14-1.04,3.15-8.02-.33-2.35-7.24-3.87-.05-8.17.48-17.9-.73-35.95-.02-53.85.08-1.93-1.03-4.01,2-3.45Z"/>
        <path class="cls-2" d="M39,236c150.77-17.16,301.4-36.53,452.5-51,37.43-3.58,74.97-6.99,112.5-9.01-.17,19.55-.43,39.01-.96,58.55-1.61,58.55-3.61,117.34-5.08,175.92-.48,19.21.52,38.43-.95,57.55-108.42,3.08-216.87,8.8-325.3,12.2l-110.22,93.79-2.48-89c-8.77.44-17.7,1.61-26.46,2.05-30.33,1.53-63.65.49-93.54,3.96-.03-49.32.04-98.68,0-148,0-2,0-4,0-6,0-4.32,0-8.68,0-13,0-2,0-4,0-6,0-2.99,0-6.01,0-9,0-1.67,0-3.33,0-5,0-2,0-4,0-6-.02-10.32.08-20.68,0-31,0-1,0-2,0-3-.03-2.99.05-6.01,0-9-.11-6.65-1.57-12.24,0-19ZM532.01,272l-114.01,9,4,107.01,114.01-5-4-111.01ZM364,285l-111,9,4,101.01,112-5.01-4.99-104.99ZM202.01,299l-108,9.01,2.99,95,109.01-5-4-99.01Z"/>
        <path class="cls-4" d="M419,141l-109.26,21.85c-28.56-23.95-57.82-47.2-85.73-71.84l102.75-23.76,5.54-.06,84.72,70.29,1.98,3.51Z"/>
        <path class="cls-4" d="M566.96,16.03l23.06,89.39c-.09.96-2.64,1.17-3.65,1.44-12.83,3.42-40.14,9.01-53,10.04-1.57.12-3.1.44-4.65-.1l-83.71-73.31,121.95-27.46Z"/>
        <path class="cls-4" d="M210,184.99l-69.63,13.9-4.66-.09c-21.05-19.99-43.39-38.62-64.72-58.29-2.97-2.73-6.52-5.89-9.31-8.69-.88-.88-2.18-.87-1.67-2.81l67.3-14.85c27.37,23.82,55.97,46.33,82.69,70.83Z"/>
        <rect class="cls-3" x="27" y="229" width="1" height="252"/>
        <path class="cls-3" d="M39,236c-1.57,6.76-.11,12.35,0,19-4.05.77-.96-5.55-2.11-6.89-.76-.88-5.01.33-4.95-2.6.09-5.19,4.26-2.81,5.03-3.55.97-.93-1.81-7.19,2.04-5.96Z"/>
        <path class="cls-3" d="M39,298c0,2,0,4,0,6-7.87.16-8.45-6.8,0-6Z"/>
        <path class="cls-3" d="M39,324c0,4.32,0,8.68,0,13-3.03.56-1.92-1.53-2-3.45s-.07-4.09,0-6.09-1.02-4.01,2-3.45Z"/>
        <path class="cls-3" d="M39,309c0,2.99,0,6.01,0,9-2.8,1.5-2.5-6.33-2.02-8.37.27-1.16,1.1-.53,2.02-.63Z"/>
        <path class="cls-3" d="M39,264c0,1,0,2,0,3-2.98.88-3.18-3.78,0-3Z"/>
        <path class="cls-3" d="M25.99,223c-.35.68-1.7-.59-.98-1.99.35-.68,1.7.59.98,1.99Z"/>
        <path class="cls-3" d="M26.5,226c.65.33.65.67,0,1v-1Z"/>
        <path d="M532.01,272l4,111.01-114.01,5-4-107.01,114.01-9ZM521.01,304l-70.01,5,2,64.01,70.01-2-2-67.01Z"/>
        <path d="M364,285l4.99,104.99-112,5.01-4-101.01,111-9ZM353,316l-68,6,2,58.01,69.01-2-3.01-62.01Z"/>
        <path d="M202.01,299l4,99.01-109.01,5-2.99-95,108-9.01ZM191.01,330l-64.95,6.05,1.95,52.95,65-2.99-2-56.01Z"/>
        <polygon class="cls-1" points="521.01 304 523.01 371.01 453 373.01 451 309 521.01 304"/>
        <polygon class="cls-1" points="353 316 356.01 378.01 287 380.01 285 322 353 316"/>
        <polygon class="cls-1" points="191.01 330 193.01 386.01 128.01 389 126.06 336.05 191.01 330"/>
      </g>
    </g>
  </g>
</svg>