<?xml version="1.0" encoding="UTF-8"?>
<svg id="Layer_2" data-name="Layer 2" xmlns="http://www.w3.org/2000/svg" viewBox="0 0 965 677">
  <defs>
    <style>
      .cls-1 {
        fill: #fcc803;
      }

      .cls-2 {
        fill: #f9f6ef;
      }

      .cls-3 {
        fill: #0d0d0c;
      }

      .cls-4 {
        fill: #0c0c0b;
      }

      .cls-5 {
        fill: #0530d7;
      }
    </style>
  </defs>
  <g id="Layer_1-2" data-name="Layer 1">
    <g>
      <g id="_3RCpmY" data-name="3RCpmY">
        <g>
          <path class="cls-1" d="M99.44,22.94L25,548l354.86-1.14,74.19-482.81,68.84-.16,6.11-42.89-429.56,1.94ZM401,215h-103c2.08-18.67,10.38-56.51-16.74-60.76-30.4-4.77-40.02,25.12-44.78,48.74-11.36,56.38-16.71,116.51-25.52,173.47,1.48,18.24,9.36,31,29.42,29.43,31.83-2.49,37.08-37.31,39.62-62.88h104c-6.34,50.29-21.56,99.5-64.68,129.82-53.74,37.77-171.01,43.4-203.18-25.46-25.07-53.67-3.48-154.32,7.17-212.55,10.55-57.6,22.94-115.55,76.17-148.83,44.22-27.65,128.21-33.06,171.44-1.4,41.44,30.35,34.44,85.41,30.08,130.42Z"/>
          <path class="cls-5" d="M471,85l-80,526h418l81-526h-419ZM765,548h-89l26.99-187-78.13,186.86-34.24.2-23.12-188.07-28.5,188.01h-88l63-412h104l20.01,208,87.99-208h102l-63,412Z"/>
          <path class="cls-4" d="M401,215h-103c2.08-18.67,10.38-56.51-16.74-60.76-30.4-4.77-40.02,25.12-44.78,48.74-11.36,56.38-16.71,116.51-25.51,173.47,1.48,18.24,9.35,31,29.41,29.43,31.83-2.49,37.09-37.31,39.62-62.88h104c-6.34,50.29-21.56,99.5-64.68,129.82-53.73,37.78-171,43.41-203.17-25.46-25.07-53.67-3.48-154.32,7.17-212.54,10.54-57.6,22.94-115.55,76.16-148.84,44.22-27.65,128.21-33.06,171.44-1.4,41.44,30.35,34.44,85.41,30.08,130.42Z"/>
          <polygon class="cls-2" points="618 136 638.01 344 726 136 828 136 765 548 676 548 702.99 361 624.86 547.86 590.62 548.06 567.5 359.99 539 548 451 548 514 136 618 136"/>
        </g>
      </g>
      <path class="cls-3" d="M905,123l6.47-46.08.03-.22,1.37-10.74.04-.28.09-.7h-342c-2.33,0-4.67.07-7,.02-.38-.01-.76-.01-1.14-.02-6.27-.1-12.59.13-18.86.02L553,0,80.05,1.04,0,570h45l-6,44,329.95.04-1.87,17.88,41.84,1.16-5.92,43.92h475l87-554h-60ZM25,548L99.44,22.94l429.56-1.94-6.11,42.89-68.84.16-74.19,482.81-354.86,1.14ZM809,611h-418L471,85h419l-81,526Z"/>
      <path class="cls-3" d="M571,64.98c-2.33,0-4.67.07-7,.02-.38-.01-.76-.01-1.14-.02h8.14Z"/>
    </g>
  </g>
</svg>