<?xml version="1.0" encoding="UTF-8"?>
<svg id="Layer_2" data-name="Layer 2" xmlns="http://www.w3.org/2000/svg" viewBox="0 0 1601.48 370.06">
  <defs>
    <style>
      .cls-1 {
        fill: #ffce00;
      }

      .cls-2 {
        fill: #0630da;
      }

      .cls-3 {
        fill: #0a0a0a;
      }

      .cls-4 {
        fill: #faf8ee;
      }
    </style>
  </defs>
  <g id="Layer_1-2" data-name="Layer 1">
    <g>
      <polygon class="cls-3" points="68.98 33.86 29.33 370.06 1557.17 366.62 1601.48 29.67 68.98 33.86"/>
      <g id="KqcsWl">
        <g>
          <path class="cls-3" d="M1572.15,0l-44.31,336.95L0,340.38,39.65,4.18,1572.15,0ZM689.51,17.96c-198.95.48-397.68,1.04-596.65,1.49-13.54.03-27.1-1.46-40.56.03L16.35,325.74c14.52-1.12,29,.07,43.55.04,196.12-.4,392.33-1.25,588.65-1.67,272.53-.58,545.28-.49,817.73-2.46,16.32-.12,32.61.99,48.88.19,1.07-.22,1.49-2.59,1.64-3.58,14.89-97.27,22.19-195.94,37.76-293.15l.23-9.49c-11.83-.06-23.7-.79-35.54-.84-276.49-1.34-553.35,2.52-829.75,3.19Z"/>
          <path class="cls-2" d="M689.51,17.96c276.4-.67,553.25-4.53,829.75-3.19,11.84.06,25.66-.3,37.49-.24l-2.18,10.57c-15.57,97.21-22.87,195.89-37.76,293.15-.15.99-.57,3.36-1.64,3.58-16.27.8-32.56-.31-48.88-.19-272.44,1.97-545.2,1.88-817.73,2.46l40.97-306.15ZM1505.94,52.51l-55.6.68-12.58,93.79-34.01.23,13.13-93.72c-6.62-.07-53.83-1.76-55.59.67l-31.77,234.41,55.02.25,12.08-91.76c11.01-.63,21.98-.77,33.02-.25l-12.09,91.75,55.59-.67,32.8-235.39ZM1336.03,134.68c4.89-30.99,6.67-64.08-26.54-78.81-36.86-16.35-86.27-1.91-105.37,34.42-14.68,27.93-20.64,93.26-23.99,126.37-5.54,54.67,17.56,82.74,74.67,76.09,46.71-5.44,68.21-38.72,71.53-83.28l-53.96-.17c-1.98,16.69-5.97,38.66-28.1,34.08-8.47-1.75-10.53-12.06-10.32-19.46,6.07-30.87,7.32-63.93,13.31-94.62,2.99-15.3,8.34-31.18,27.75-26.78,12.39,2.81,8.1,23.81,6.98,32.93l54.04-.76ZM1196.84,53.49l-133.62.9-6.64,52.93,39.02-.12-24.16,182.51,53.96.17,25.14-181.78,39.08-.75,7.23-53.86ZM1036.73,53.91l-63.85.63-82.5,235.05,53.38.08,1.78-2.23,9.73-30.25c12.6-1.21,25.23-.58,37.89-.28l1.35,32.93,54.93-.64-12.71-235.3ZM828.38,289.18l47.49,1.08c.51.01,2.31-1.13,3.34-1.11l33.53-234.6c-19.09-1.41-38.3.56-57.53-.84l-2.01.96-48.81,122.92-13.84-123.2-57.37-.46-2.33,1.65-31.54,234.65,48.97.06,16.13-113.62,14.1,111.72c.81,2.8,17.27,2.55,18.94.41l46.45-111.31-15.53,111.67Z"/>
          <path class="cls-1" d="M689.51,17.96l-40.97,306.15c-196.31.42-392.53,1.27-588.65,1.67-14.55.03-29.03-1.16-43.55-.04L52.3,19.48c13.46-1.49,27.02,0,40.56-.03,198.97-.45,397.69-1,596.65-1.49ZM571.62,104.41h68.97s7.15-50.93,7.15-50.93l-128.98,1.24-29.79,233.61,128.27-.06,7.29-51.74-71.03.39,4.99-43.91,61.02.4,6.18-51.88-59.02-.33,4.95-36.79ZM498.65,53.63l-56.02-.28-14.39,104.7-31.75-104.61-54.84.68-32.39,234.26,56,.26,14.58-112.68,33.61,111.65,52.73.2,32.47-234.18ZM233.64,134.52c4.7-25.45,6.56-51.94-14.78-70.27-21.38-18.37-62.93-17.81-88.04-8.16-32.97,12.67-45.96,40.76-51.86,73.66-4.73,26.34-9.98,61.13-12.13,87.61-4.94,61.05,32.76,84.71,90.34,74.07,43.09-7.96,63.86-41.05,66.9-83.01l-56.96-.24c-1.98,12.66-3.29,28.82-17.78,33.08-18.65,5.49-24.78-7.09-23.49-23.56,1.31-16.64,5.58-35.23,8.05-51.97,2.27-15.44,3.08-50.72,13.98-61.11,5.51-5.25,14.6-6.73,21.61-3.94,13.35,5.32,7.37,22.76,7.26,33.65l56.91.18ZM320.61,53.58c-19.31.75-38.75-.18-58.09.12l-.81,1.19-32.46,233.67,58.96.29,32.41-235.27Z"/>
          <path class="cls-4" d="M828.38,289.18l15.53-111.67-46.45,111.31c-1.68,2.14-18.14,2.39-18.94-.41l-14.1-111.72-16.13,113.62-48.97-.06,31.54-234.65,2.33-1.65,57.37.46,13.84,123.2,48.81-122.92,2.01-.96c19.22,1.39,38.44-.57,57.53.84l-33.53,234.6c-1.03-.03-2.84,1.12-3.34,1.11l-47.49-1.08Z"/>
          <path class="cls-4" d="M1505.94,52.51l-32.8,235.39-55.59.67,12.09-91.75c-11.04-.52-22.01-.38-33.02.25l-12.08,91.76-55.02-.25,31.77-234.41c1.76-2.42,48.97-.73,55.59-.67l-13.13,93.72,34.01-.23,12.58-93.79,55.6-.68Z"/>
          <path class="cls-4" d="M1036.73,53.91l12.71,235.3-54.93.64-1.35-32.93c-12.66-.3-25.29-.93-37.89.28l-9.73,30.25-1.78,2.23-53.38-.08,82.5-235.05,63.85-.63ZM993.25,208.91l-.71-79.05-23.31,79.5c7.95-1.29,15.99-.57,24.02-.44Z"/>
          <path class="cls-4" d="M1336.03,134.68l-54.04.76c1.12-9.12,5.4-30.12-6.98-32.93-19.41-4.4-24.76,11.48-27.75,26.78-5.99,30.69-7.24,63.75-13.31,94.62-.22,7.4,1.84,17.71,10.32,19.46,22.13,4.58,26.11-17.39,28.1-34.08l53.96.17c-3.33,44.56-24.82,77.85-71.53,83.28-57.11,6.65-80.2-21.43-74.67-76.09,3.35-33.11,9.32-98.44,23.99-126.37,19.09-36.33,68.51-50.77,105.37-34.42,33.21,14.73,31.44,47.82,26.54,78.81Z"/>
          <polygon class="cls-4" points="1196.84 53.49 1189.61 107.35 1150.53 108.1 1125.39 289.88 1071.43 289.71 1095.59 107.2 1056.57 107.32 1063.21 54.39 1196.84 53.49"/>
          <polygon class="cls-3" points="498.65 53.63 466.18 287.81 413.45 287.62 379.84 175.97 365.27 288.65 309.26 288.39 341.65 54.12 396.49 53.44 428.24 158.06 442.63 53.35 498.65 53.63"/>
          <path class="cls-3" d="M233.64,134.52l-56.91-.18c.11-10.89,6.09-28.33-7.26-33.65-7-2.79-16.1-1.31-21.61,3.94-10.9,10.39-11.7,45.67-13.98,61.11-2.47,16.74-6.74,35.33-8.05,51.97-1.29,16.47,4.84,29.06,23.49,23.56,14.48-4.27,15.8-20.42,17.78-33.08l56.96.24c-3.04,41.96-23.81,75.05-66.9,83.01-57.58,10.64-95.28-13.02-90.34-74.07,2.14-26.48,7.4-61.27,12.13-87.61,5.91-32.9,18.89-60.99,51.86-73.66,25.11-9.65,66.66-10.21,88.04,8.16,21.34,18.33,19.48,44.82,14.78,70.27Z"/>
          <polygon class="cls-3" points="571.62 104.41 566.67 141.2 625.69 141.54 619.51 193.42 558.49 193.02 553.5 236.93 624.53 236.54 617.24 288.28 488.97 288.34 518.76 54.72 647.74 53.48 640.59 104.43 571.62 104.41"/>
          <path class="cls-3" d="M320.61,53.58l-32.41,235.27-58.96-.29,32.46-233.67.81-1.19c19.34-.29,38.78.63,58.09-.12Z"/>
          <path class="cls-2" d="M993.25,208.91c-8.03-.13-16.07-.84-24.02.44l23.31-79.5.71,79.05Z"/>
        </g>
      </g>
    </g>
  </g>
</svg>